<svg width="28" height="30" viewBox="0 0 28 30" fill="none" xmlns="http://www.w3.org/2000/svg">
<path d="M21.5 21H24.5V3H9.5V6H21.5V21ZM21.5 24V28.5C21.5 29.328 20.825 30 19.9895 30H2.0105C1.81269 30.0012 1.6166 29.9633 1.43348 29.8884C1.25037 29.8136 1.08385 29.7033 0.943488 29.5639C0.803126 29.4246 0.691689 29.2588 0.615581 29.0762C0.539473 28.8936 0.500194 28.6978 0.5 28.5L0.5045 7.5C0.5045 6.672 1.1795 6 2.015 6H6.5V1.5C6.5 1.10218 6.65804 0.720644 6.93934 0.43934C7.22064 0.158035 7.60218 0 8 0H26C26.3978 0 26.7794 0.158035 27.0607 0.43934C27.342 0.720644 27.5 1.10218 27.5 1.5V22.5C27.5 22.8978 27.342 23.2794 27.0607 23.5607C26.7794 23.842 26.3978 24 26 24H21.5ZM3.5045 9L3.5 27H18.5V9H3.5045ZM6.5 21H13.25C13.4489 21 13.6397 20.921 13.7803 20.7803C13.921 20.6397 14 20.4489 14 20.25C14 20.0511 13.921 19.8603 13.7803 19.7197C13.6397 19.579 13.4489 19.5 13.25 19.5H8.75C7.75544 19.5 6.80161 19.1049 6.09835 18.4017C5.39509 17.6984 5 16.7446 5 15.75C5 14.7554 5.39509 13.8016 6.09835 13.0984C6.80161 12.3951 7.75544 12 8.75 12H9.5V10.5H12.5V12H15.5V15H8.75C8.55109 15 8.36032 15.079 8.21967 15.2197C8.07902 15.3603 8 15.5511 8 15.75C8 15.9489 8.07902 16.1397 8.21967 16.2803C8.36032 16.421 8.55109 16.5 8.75 16.5H13.25C14.2446 16.5 15.1984 16.8951 15.9017 17.5984C16.6049 18.3016 17 19.2554 17 20.25C17 21.2446 16.6049 22.1984 15.9017 22.9017C15.1984 23.6049 14.2446 24 13.25 24H12.5V25.5H9.5V24H6.5V21Z" fill="#D4DDEB"/>
</svg>
