<svg width="4" height="12" viewBox="0 0 4 12" fill="none" xmlns="http://www.w3.org/2000/svg">
<path d="M2.00008 0C1.26675 0 0.666748 0.6 0.666748 1.33333C0.666748 2.06667 1.26675 2.66667 2.00008 2.66667C2.73341 2.66667 3.33341 2.06667 3.33341 1.33333C3.33341 0.6 2.73341 0 2.00008 0ZM2.00008 9.33333C1.26675 9.33333 0.666748 9.93333 0.666748 10.6667C0.666748 11.4 1.26675 12 2.00008 12C2.73341 12 3.33341 11.4 3.33341 10.6667C3.33341 9.93333 2.73341 9.33333 2.00008 9.33333ZM2.00008 4.66667C1.26675 4.66667 0.666748 5.26667 0.666748 6C0.666748 6.73333 1.26675 7.33333 2.00008 7.33333C2.73341 7.33333 3.33341 6.73333 3.33341 6C3.33341 5.26667 2.73341 4.66667 2.00008 4.66667Z" fill="#66B6FF"/>
</svg>
