<svg width="18" height="18" viewBox="0 0 18 18" fill="none" xmlns="http://www.w3.org/2000/svg">
<path d="M2.491 11.1626L5.407 8.24659L7.831 10.6714L10.537 7.96545L9.00015 6.42859H13.2859V10.7143L11.749 9.17745L7.831 13.0954L5.407 10.6714L3.28558 12.792C4.2485 14.2413 5.7264 15.2704 7.41977 15.6706C9.11315 16.0708 10.8954 15.8123 12.4052 14.9475C13.9151 14.0826 15.0398 12.6761 15.5512 11.0129C16.0627 9.34978 15.9228 7.55437 15.1598 5.99053C14.3968 4.4267 13.0678 3.21141 11.4422 2.59094C9.81653 1.97047 8.0158 1.99122 6.40488 2.64899C4.79396 3.30676 3.49335 4.55235 2.7666 6.13335C2.03986 7.71435 1.94134 9.51251 2.491 11.1634V11.1626ZM1.17272 12.498L1.16415 12.4894L1.16758 12.486C0.678942 11.3889 0.427179 10.201 0.428718 9.00002C0.428718 4.26602 4.26615 0.428589 9.00015 0.428589C13.7341 0.428589 17.5716 4.26602 17.5716 9.00002C17.5716 13.734 13.7341 17.5714 9.00015 17.5714C5.51158 17.5714 2.51158 15.4886 1.17272 12.498Z" fill="white"/>
</svg>
