<svg width="13" height="14" viewBox="0 0 13 14" fill="none" xmlns="http://www.w3.org/2000/svg">
<path d="M7.74672 10.3486L4.94739 8.82193C4.58192 9.21264 4.10738 9.48439 3.58544 9.60186C3.0635 9.71933 2.51829 9.67708 2.02067 9.48062C1.52305 9.28416 1.09603 8.94257 0.795101 8.50023C0.494173 8.05789 0.333252 7.53526 0.333252 7.00026C0.333252 6.46527 0.494173 5.94264 0.795101 5.5003C1.09603 5.05796 1.52305 4.71637 2.02067 4.51991C2.51829 4.32345 3.0635 4.28121 3.58544 4.39867C4.10738 4.51614 4.58192 4.78789 4.94739 5.1786L7.74739 3.65193C7.58843 3.02265 7.66443 2.35699 7.96114 1.77973C8.25786 1.20248 8.75493 0.753253 9.35917 0.516266C9.96341 0.27928 10.6333 0.270802 11.2434 0.492422C11.8534 0.714041 12.3617 1.15054 12.6729 1.72011C12.9842 2.28967 13.077 2.95319 12.934 3.5863C12.791 4.2194 12.422 4.77862 11.8962 5.15914C11.3704 5.53965 10.7239 5.71534 10.0778 5.65326C9.43172 5.59118 8.83046 5.29561 8.38672 4.82193L5.58672 6.3486C5.69419 6.77617 5.69419 7.22369 5.58672 7.65127L8.38606 9.17793C8.82979 8.70426 9.43105 8.40868 10.0771 8.3466C10.7232 8.28452 11.3697 8.46021 11.8955 8.84072C12.4214 9.22124 12.7903 9.78046 12.9333 10.4136C13.0763 11.0467 12.9835 11.7102 12.6723 12.2798C12.361 12.8493 11.8528 13.2858 11.2427 13.5074C10.6327 13.7291 9.96274 13.7206 9.3585 13.4836C8.75426 13.2466 8.2572 12.7974 7.96048 12.2201C7.66376 11.6429 7.58776 10.9772 7.74672 10.3479V10.3486ZM3.00006 8.33326C3.35368 8.33326 3.69282 8.19279 3.94287 7.94274C4.19291 7.69269 4.33339 7.35355 4.33339 6.99993C4.33339 6.64631 4.19291 6.30717 3.94287 6.05712C3.69282 5.80707 3.35368 5.6666 3.00006 5.6666C2.64643 5.6666 2.3073 5.80707 2.05725 6.05712C1.8072 6.30717 1.66672 6.64631 1.66672 6.99993C1.66672 7.35355 1.8072 7.69269 2.05725 7.94274C2.3073 8.19279 2.64643 8.33326 3.00006 8.33326ZM10.3334 4.33327C10.687 4.33327 11.0261 4.19279 11.2762 3.94274C11.5262 3.69269 11.6667 3.35355 11.6667 2.99993C11.6667 2.64631 11.5262 2.30717 11.2762 2.05712C11.0261 1.80707 10.687 1.6666 10.3334 1.6666C9.97977 1.6666 9.64063 1.80707 9.39058 2.05712C9.14053 2.30717 9.00006 2.64631 9.00006 2.99993C9.00006 3.35355 9.14053 3.69269 9.39058 3.94274C9.64063 4.19279 9.97977 4.33327 10.3334 4.33327ZM10.3334 12.3333C10.687 12.3333 11.0261 12.1928 11.2762 11.9427C11.5262 11.6927 11.6667 11.3536 11.6667 10.9999C11.6667 10.6463 11.5262 10.3072 11.2762 10.0571C11.0261 9.80707 10.687 9.6666 10.3334 9.6666C9.97977 9.6666 9.64063 9.80707 9.39058 10.0571C9.14053 10.3072 9.00006 10.6463 9.00006 10.9999C9.00006 11.3536 9.14053 11.6927 9.39058 11.9427C9.64063 12.1928 9.97977 12.3333 10.3334 12.3333Z" fill="#66B6FF"/>
</svg>
