<svg width="18" height="18" viewBox="0 0 18 18" fill="none" xmlns="http://www.w3.org/2000/svg">
<path d="M8.9999 0.428589C13.7313 0.428589 17.5713 4.26859 17.5713 9.00002C17.5713 13.7314 13.7313 17.5714 8.9999 17.5714C4.26847 17.5714 0.428467 13.7314 0.428467 9.00002C0.428467 4.26859 4.26847 0.428589 8.9999 0.428589ZM8.9999 15.8572C12.7945 15.8572 15.857 12.7946 15.857 9.00002C15.857 5.20545 12.7945 2.14287 8.9999 2.14287C8.09908 2.14175 7.2069 2.31834 6.37445 2.66255C5.54199 3.00675 4.78562 3.5118 4.14865 4.14877C3.51168 4.78574 3.00663 5.54211 2.66242 6.37457C2.31822 7.20703 2.14162 8.09921 2.14275 9.00002C2.14275 12.7946 5.20532 15.8572 8.9999 15.8572ZM8.9999 14.1429C6.15418 14.1429 3.85704 11.8457 3.85704 9.00002C3.85704 6.1543 6.15418 3.85716 8.9999 3.85716C11.8456 3.85716 14.1428 6.1543 14.1428 9.00002C14.1428 11.8457 11.8456 14.1429 8.9999 14.1429ZM8.9999 7.28573C8.05704 7.28573 7.28561 8.05716 7.28561 9.00002C7.28561 9.94287 8.05704 10.7143 8.9999 10.7143C9.94275 10.7143 10.7142 9.94287 10.7142 9.00002C10.7142 8.05716 9.94275 7.28573 8.9999 7.28573Z" fill="white"/>
</svg>
