<?xml version="1.0" encoding="UTF-8"?>
<svg version="1.1" viewBox="0 0 100 100" xmlns="http://www.w3.org/2000/svg" xmlns:xlink="http://www.w3.org/1999/xlink">
    <g fill="#fff">
        <path d="M92,37h-5v-12.9c0,-0.8 -0.3,-1.6 -0.9,-2.1l-19.1,-19.1c-0.5,-0.6 -1.3,-0.9 -2.1,-0.9h-45.9c-1.6,0 -3.1,0.6 -4.2,1.8c-1.2,1.1 -1.8,2.6 -1.8,4.2v29h-4.9c-3.3,0 -6,2.7 -6,6l-0.1,31.5c0,1.6 0.6,3.1 1.8,4.2c1.1,1.1 2.7,1.8 4.2,1.8h5v11.5c0,1.6 0.6,3.1 1.8,4.2c1.1,1.1 2.7,1.8 4.2,1.8h62c1.6,0 3.1,-0.6 4.2,-1.8c1.1,-1.1 1.8,-2.6 1.8,-4.2v-11.5h5c3.3,0 6,-2.7 6,-6v-31.5c0,-3.3 -2.7,-6 -6,-6Zm-11.8,-15.3h-12.9c-0.5,0 -1,-0.2 -1.4,-0.6c-0.4,-0.4 -0.6,-0.9 -0.6,-1.4v-12.9l14.9,14.9Zm-63.2,-13.7c0,-0.5 0.2,-1 0.6,-1.4c0.3,-0.4 0.8,-0.6 1.4,-0.6h42.3v13.7c0,1.6 0.6,3.1 1.8,4.2c1.1,1.1 2.6,1.8 4.2,1.8h15.8v11.3h-66.1v-29Zm66,84c0,0.5 -0.2,1 -0.6,1.4c-0.3,0.4 -0.8,0.6 -1.4,0.6h-62c-0.5,0 -1,-0.2 -1.4,-0.6c-0.4,-0.4 -0.6,-0.9 -0.6,-1.4v-11.5h66v11.5Zm11,-17.5c0,1.1 -0.9,2 -2,2h-84c-0.5,0 -1,-0.2 -1.4,-0.6c-0.4,-0.4 -0.6,-0.9 -0.6,-1.4l0.1,-31.5c0,-1.1 0.9,-2 2,-2h83.9c1.1,0 2,0.9 2,2v31.5Z"></path>
        <path d="M22.223,67.318v-19.311c0,-1.2 -0.985,-2.175 -2.198,-2.175c-1.213,0 -2.198,0.975 -2.198,2.175v21.261c0,1.2 0.909,2.1 2.16,2.1h11.217c1.251,0 2.122,-0.863 2.122,-2.025c0,-1.125 -0.871,-2.025 -2.122,-2.025h-8.981Z"></path>
        <path d="M45.187,71.893c7.655,0 12.013,-4.35 12.013,-13.124c0,-8.887 -4.358,-13.162 -12.013,-13.162c-7.655,0 -12.012,4.275 -12.012,13.162c0,8.774 4.357,13.124 12.012,13.124Zm0,-22.386c5.002,0 7.466,3.037 7.466,9.262c0,6.187 -2.464,9.224 -7.466,9.224c-5.002,0 -7.465,-3.037 -7.465,-9.224c0,-6.225 2.463,-9.262 7.465,-9.262Z"></path>
        <path d="M77.891,65.856c-1.478,1.5 -3.449,2.137 -6.253,2.137c-5.04,0 -7.314,-2.662 -7.314,-9.224c0,-6.187 2.274,-9.262 7.314,-9.262c2.767,0 4.396,0.937 5.95,2.625c0.492,0.525 1.023,0.75 1.553,0.75c1.137,0 2.047,-0.9 2.047,-1.988c0,-0.412 -0.114,-0.787 -0.417,-1.237c-1.554,-2.25 -4.547,-4.05 -9.133,-4.05c-7.541,0 -11.861,4.275 -11.861,13.162c0,9.187 4.32,13.124 11.861,13.124c4.055,0 8.072,-1.688 9.891,-4.087c0.455,-0.563 0.644,-1.125 0.644,-1.988v-5.999c0,-1.088 -1.023,-1.988 -2.084,-1.988h-7.352c-1.061,0 -1.933,0.863 -1.933,1.913c0,1.05 0.872,1.912 1.933,1.912h5.154v4.2Z"></path>
    </g>
</svg>