<svg width="12" height="15" viewBox="0 0 12 15" fill="none" xmlns="http://www.w3.org/2000/svg">
<path d="M9.99998 5.66671C9.99998 4.60584 9.57856 3.58843 8.82841 2.83828C8.07826 2.08813 7.06085 1.66671 5.99998 1.66671C4.93911 1.66671 3.9217 2.08813 3.17155 2.83828C2.42141 3.58843 1.99998 4.60584 1.99998 5.66671V11H9.99998V5.66671ZM11.3333 11.4447L11.6 11.8C11.6371 11.8496 11.6597 11.9085 11.6653 11.9701C11.6709 12.0318 11.6591 12.0937 11.6315 12.1491C11.6038 12.2045 11.5612 12.251 11.5086 12.2836C11.4559 12.3161 11.3952 12.3334 11.3333 12.3334H0.666647C0.604743 12.3334 0.544061 12.3161 0.491403 12.2836C0.438744 12.251 0.396188 12.2045 0.368504 12.1491C0.34082 12.0937 0.329101 12.0318 0.33466 11.9701C0.340219 11.9085 0.362837 11.8496 0.39998 11.8L0.666647 11.4447V5.66671C0.666647 4.25222 1.22855 2.89567 2.22874 1.89547C3.22894 0.895277 4.58549 0.333374 5.99998 0.333374C7.41447 0.333374 8.77102 0.895277 9.77122 1.89547C10.7714 2.89567 11.3333 4.25222 11.3333 5.66671V11.4447ZM4.33331 13H7.66665C7.66665 13.4421 7.49105 13.866 7.17849 14.1786C6.86593 14.4911 6.44201 14.6667 5.99998 14.6667C5.55795 14.6667 5.13403 14.4911 4.82147 14.1786C4.50891 13.866 4.33331 13.4421 4.33331 13Z" fill="#C7CFE3"/>
</svg>
