<svg width="17" height="20" viewBox="0 0 17 20" fill="none" xmlns="http://www.w3.org/2000/svg">
<path d="M9.375 8.62493V4.24993H7.625V10.3749H12.875V8.62493H9.375ZM14.0685 14.1934L8.5 19.7619L2.9315 14.1934C1.83017 13.0921 1.08016 11.6889 0.776312 10.1613C0.472462 8.6337 0.628418 7.05031 1.22446 5.61135C1.8205 4.17238 2.82986 2.94248 4.1249 2.07717C5.41993 1.21186 6.94248 0.75 8.5 0.75C10.0575 0.75 11.5801 1.21186 12.8751 2.07717C14.1701 2.94248 15.1795 4.17238 15.7755 5.61135C16.3716 7.05031 16.5275 8.6337 16.2237 10.1613C15.9198 11.6889 15.1698 13.0921 14.0685 14.1934Z" fill="white"/>
</svg>
