<svg width="16" height="14" viewBox="0 0 16 14" fill="none" xmlns="http://www.w3.org/2000/svg">
<path d="M2.46899 2.99679L0.156761 0.933817L1.20307 0L15.8432 13.0668L14.7969 14L12.3494 11.8156C11.0489 12.5518 9.54006 12.9417 8 12.9395C4.01294 12.9395 0.695813 10.3789 0 7C0.317981 5.46281 1.18431 4.05857 2.46973 2.99679H2.46899ZM10.0386 9.75328L8.9561 8.78712C8.54204 8.96393 8.07674 9.02176 7.62431 8.95263C7.17189 8.88349 6.75464 8.69081 6.43007 8.40114C6.10551 8.11147 5.88962 7.73908 5.81216 7.3353C5.7347 6.93151 5.79949 6.51623 5.9976 6.1467L4.91506 5.18054C4.44456 5.81507 4.23423 6.57522 4.31968 7.33227C4.40513 8.08933 4.78111 8.79677 5.38395 9.3348C5.98679 9.87282 6.77945 10.2084 7.6277 10.2846C8.47595 10.3609 9.32767 10.1732 10.0386 9.75328ZM5.02302 1.56208C5.9451 1.23871 6.95 1.06053 8 1.06053C11.9871 1.06053 15.3042 3.6211 16 7C15.7734 8.09926 15.2642 9.13662 14.5122 10.0305L11.658 7.48308C11.7428 6.97335 11.6926 6.45298 11.5115 5.96366C11.3305 5.47435 11.0235 5.02969 10.6152 4.6653C10.2069 4.30092 9.7087 4.02694 9.16044 3.86533C8.61218 3.70371 8.02912 3.65894 7.45799 3.73461L5.02302 1.56274V1.56208Z" fill="#C7CFE3"/>
</svg>
