<svg width="18" height="18" viewBox="0 0 18 18" fill="none" xmlns="http://www.w3.org/2000/svg">
<path d="M9.00001 17.3333C4.39751 17.3333 0.666672 13.6025 0.666672 8.99999C0.666672 4.39749 4.39751 0.666656 9.00001 0.666656C13.6025 0.666656 17.3333 4.39749 17.3333 8.99999C17.3333 13.6025 13.6025 17.3333 9.00001 17.3333ZM9.00001 15.6667C10.7681 15.6667 12.4638 14.9643 13.7141 13.714C14.9643 12.4638 15.6667 10.7681 15.6667 8.99999C15.6667 7.23188 14.9643 5.53619 13.7141 4.28594C12.4638 3.0357 10.7681 2.33332 9.00001 2.33332C7.2319 2.33332 5.5362 3.0357 4.28596 4.28594C3.03572 5.53619 2.33334 7.23188 2.33334 8.99999C2.33334 10.7681 3.03572 12.4638 4.28596 13.714C5.5362 14.9643 7.2319 15.6667 9.00001 15.6667ZM8.16667 11.5H9.83334V13.1667H8.16667V11.5ZM8.16667 4.83332H9.83334V9.83332H8.16667V4.83332Z" fill="#FF92A5"/>
</svg>
