<svg width="78" height="78" viewBox="0 0 78 78" fill="none" xmlns="http://www.w3.org/2000/svg">
<circle cx="39" cy="39" r="39" fill="#EBF0FA"/>
<path d="M39 22.5L51.3255 25.239C51.6586 25.313 51.9565 25.4984 52.17 25.7646C52.3835 26.0308 52.4999 26.3618 52.5 26.703V41.6835C52.4999 43.1651 52.134 44.6238 51.4348 45.93C50.7357 47.2363 49.7248 48.3497 48.492 49.1715L39 55.5L29.508 49.1715C28.2752 48.35 27.2644 47.2369 26.5652 45.9309C25.866 44.6249 25.5001 43.1664 25.5 41.685V26.703C25.5001 26.3618 25.6165 26.0308 25.83 25.7646C26.0435 25.4984 26.3414 25.313 26.6745 25.239L39 22.5ZM45.678 33.333L38.253 40.7565L34.011 36.5145L31.89 38.6355L38.2545 45L47.8005 35.454L45.678 33.333Z" fill="#D4DDEB"/>
</svg>
