<svg width="12" height="12" viewBox="0 0 12 12" fill="none" xmlns="http://www.w3.org/2000/svg">
<path d="M6.24183 1.91667H11.2503C11.405 1.91667 11.5534 1.97812 11.6628 2.08752C11.7722 2.19692 11.8337 2.34529 11.8337 2.5V10.6667C11.8337 10.8214 11.7722 10.9697 11.6628 11.0791C11.5534 11.1885 11.405 11.25 11.2503 11.25H0.750326C0.595616 11.25 0.447243 11.1885 0.337847 11.0791C0.22845 10.9697 0.166992 10.8214 0.166992 10.6667V1.33333C0.166992 1.17862 0.22845 1.03025 0.337847 0.920854C0.447243 0.811458 0.595616 0.75 0.750326 0.75H5.07516L6.24183 1.91667ZM6.58366 6.58333H8.33366L6.00033 4.25L3.66699 6.58333H5.41699V8.91667H6.58366V6.58333Z" fill="#C7CFE3"/>
</svg>
