<svg width="12" height="12" viewBox="0 0 12 12" fill="none" xmlns="http://www.w3.org/2000/svg">
<path d="M10.0833 4.83342H10.6667C10.8214 4.83342 10.9697 4.89487 11.0791 5.00427C11.1885 5.11367 11.25 5.26204 11.25 5.41675V11.2501C11.25 11.4048 11.1885 11.5532 11.0791 11.6626C10.9697 11.772 10.8214 11.8334 10.6667 11.8334H1.33333C1.17862 11.8334 1.03025 11.772 0.920854 11.6626C0.811458 11.5532 0.75 11.4048 0.75 11.2501V5.41675C0.75 5.26204 0.811458 5.11367 0.920854 5.00427C1.03025 4.89487 1.17862 4.83342 1.33333 4.83342H1.91667V4.25008C1.91667 3.71385 2.02229 3.18287 2.22749 2.68746C2.4327 2.19204 2.73347 1.7419 3.11265 1.36273C3.49182 0.983556 3.94196 0.68278 4.43738 0.477573C4.93279 0.272367 5.46377 0.166748 6 0.166748C6.53623 0.166748 7.06721 0.272367 7.56262 0.477573C8.05804 0.68278 8.50818 0.983556 8.88735 1.36273C9.26652 1.7419 9.5673 2.19204 9.77251 2.68746C9.97771 3.18287 10.0833 3.71385 10.0833 4.25008V4.83342ZM8.91667 4.83342V4.25008C8.91667 3.47653 8.60938 2.73467 8.06239 2.18769C7.51541 1.64071 6.77355 1.33341 6 1.33341C5.22645 1.33341 4.48459 1.64071 3.93761 2.18769C3.39062 2.73467 3.08333 3.47653 3.08333 4.25008V4.83342H8.91667ZM5.41667 7.16675V9.50008H6.58333V7.16675H5.41667Z" fill="#66B6FF"/>
</svg>
