<svg width="20" height="20" viewBox="0 0 20 20" fill="none" xmlns="http://www.w3.org/2000/svg">
<path d="M10 0C4.486 0 0 4.486 0 10C0 15.514 4.486 20 10 20C15.514 20 20 15.514 20 10C20 4.486 15.514 0 10 0ZM17.931 9H11V2.069C12.7598 2.29335 14.3953 3.09574 15.6498 4.3502C16.9043 5.60466 17.7066 7.24017 17.931 9ZM2 10C2 5.928 5.061 2.564 9 2.069V10C9.00296 10.1526 9.04093 10.3024 9.111 10.438C9.126 10.468 9.133 10.501 9.152 10.531L13.354 17.254C12.3038 17.7442 11.159 17.9988 10 18C5.589 18 2 14.411 2 10ZM15.052 16.196L11.805 11H17.931C17.6746 13.0376 16.6436 14.8982 15.052 16.196Z" fill="#677494"/>
</svg>
