<svg width="24" height="24" viewBox="0 0 24 24" fill="none" xmlns="http://www.w3.org/2000/svg">
<rect width="24" height="24" rx="6" fill="#66B6FF"/>
<path d="M11.9992 3.42859C16.7306 3.42859 20.5706 7.26859 20.5706 12C20.5706 16.7314 16.7306 20.5714 11.9992 20.5714C7.26773 20.5714 3.42773 16.7314 3.42773 12C3.42773 7.26859 7.26773 3.42859 11.9992 3.42859ZM11.9992 18.8572C15.7937 18.8572 18.8563 15.7946 18.8563 12C18.8563 8.20545 15.7937 5.14287 11.9992 5.14287C11.0984 5.14175 10.2062 5.31834 9.37371 5.66255C8.54126 6.00675 7.78488 6.5118 7.14791 7.14877C6.51095 7.78574 6.0059 8.54211 5.66169 9.37457C5.31749 10.207 5.14089 11.0992 5.14202 12C5.14202 15.7946 8.20459 18.8572 11.9992 18.8572ZM11.9992 17.1429C9.15345 17.1429 6.85631 14.8457 6.85631 12C6.85631 9.1543 9.15345 6.85716 11.9992 6.85716C14.8449 6.85716 17.142 9.1543 17.142 12C17.142 14.8457 14.8449 17.1429 11.9992 17.1429ZM11.9992 10.2857C11.0563 10.2857 10.2849 11.0572 10.2849 12C10.2849 12.9429 11.0563 13.7143 11.9992 13.7143C12.942 13.7143 13.7134 12.9429 13.7134 12C13.7134 11.0572 12.942 10.2857 11.9992 10.2857Z" fill="white"/>
</svg>
