<svg width="14" height="14" viewBox="0 0 14 14" fill="none" xmlns="http://www.w3.org/2000/svg">
<path d="M11.0206 10.078L13.8759 12.9327L12.9326 13.876L10.0779 11.0207C9.01574 11.8722 7.69459 12.3353 6.33325 12.3334C3.02125 12.3334 0.333252 9.64537 0.333252 6.33337C0.333252 3.02137 3.02125 0.333374 6.33325 0.333374C9.64525 0.333374 12.3333 3.02137 12.3333 6.33337C12.3352 7.69471 11.8721 9.01587 11.0206 10.078ZM9.68325 9.58337C10.5293 8.7133 11.0018 7.54699 10.9999 6.33337C10.9999 3.75471 8.91125 1.66671 6.33325 1.66671C3.75459 1.66671 1.66659 3.75471 1.66659 6.33337C1.66659 8.91137 3.75459 11 6.33325 11C7.54687 11.002 8.71317 10.5294 9.58325 9.68337L9.68325 9.58337Z" fill="#C7CFE3"/>
</svg>
