<svg width="24" height="24" viewBox="0 0 24 24" fill="none" xmlns="http://www.w3.org/2000/svg">
<rect width="24" height="24" rx="6" fill="#FF92A5"/>
<g clip-path="url(#clip0)">
<path d="M17.799 7.36739C16.5836 6.15191 14.8391 5.78132 13.3001 6.25363C13.8297 5.48911 14.7126 4.98703 15.7111 4.98703C16.1414 4.98703 16.4903 4.63815 16.4903 4.20781C16.4903 3.77747 16.1414 3.42859 15.7111 3.42859C14.1709 3.42859 12.8095 4.20823 12.0005 5.39342C11.1914 4.20823 9.83002 3.42859 8.28987 3.42859C7.85953 3.42859 7.51065 3.77747 7.51065 4.20781C7.51065 4.63815 7.85953 4.98703 8.28987 4.98703C9.28831 4.98703 10.1712 5.48911 10.7007 6.25368C9.16176 5.78132 7.4173 6.15197 6.20187 7.36745C5.89755 7.67176 5.89755 8.16511 6.20187 8.46942C6.35402 8.62158 6.55345 8.69768 6.75288 8.69768C6.95231 8.69768 7.15174 8.62163 7.30384 8.46942C8.00956 7.76371 8.98847 7.49436 9.90322 7.66017C8.4814 8.41451 7.51059 9.91041 7.51059 11.629C7.51059 12.0593 7.85948 12.4082 8.28982 12.4082C8.72015 12.4082 9.06904 12.0593 9.06904 11.629C9.06904 10.2825 9.98197 9.14584 11.2212 8.80365V19.7922C11.2212 20.2226 11.5701 20.5714 12.0004 20.5714C12.4308 20.5714 12.7796 20.2226 12.7796 19.7922V8.8036C14.0189 9.14578 14.9318 10.2824 14.9318 11.629C14.9318 12.0593 15.2807 12.4082 15.711 12.4082C16.1414 12.4082 16.4902 12.0593 16.4902 11.629C16.4902 9.91035 15.5195 8.41451 14.0976 7.66012C15.0124 7.49436 15.9913 7.76371 16.697 8.46937C16.8491 8.62152 17.0486 8.69763 17.2479 8.69763C17.4474 8.69763 17.6468 8.62158 17.799 8.46937C18.1033 8.16506 18.1033 7.67171 17.799 7.36739Z" fill="white"/>
</g>
<defs>
<clipPath id="clip0">
<rect width="17.1429" height="17.1429" fill="white" transform="translate(3.42871 3.42859)"/>
</clipPath>
</defs>
</svg>
