<svg width="119" height="53" viewBox="0 0 119 53" fill="none" xmlns="http://www.w3.org/2000/svg">
<path opacity="0.5" d="M68.0983 16.7048C79.7919 16.7048 81.1676 1 97.3324 1C110.058 1 119 12.3074 119 12.3074L119 46.64C119 46.9743 119 47.1414 118.993 47.2826C118.848 50.3742 116.374 52.8475 113.283 52.9933C113.141 53 112.974 53 112.64 53L6.36001 53C6.02574 53 5.85861 53 5.71737 52.9933C2.62584 52.8475 0.152458 50.3742 0.00666809 47.2826C7.62939e-06 47.1414 7.62939e-06 46.9743 7.62939e-06 46.64L7.62939e-06 21.3461C7.62939e-06 21.3461 6.53468 23.9991 15.4769 22.6726C24.4191 21.3461 28.8902 9.16649 40.9277 9.16649C51.9335 9.16649 56.4046 16.7048 68.0983 16.7048Z" fill="#F2F5FA"/>
<path d="M1 21C1 21 6.53468 23.9991 15.4769 22.6726C24.4191 21.3461 28.8902 9.16649 40.9277 9.16649C51.9335 9.16649 56.4046 16.7048 68.0983 16.7048C79.7919 16.7048 81.1676 1 97.3324 1C110.058 1 118 12 118 12" stroke="#EBF0FA" stroke-width="1.5" stroke-linecap="round"/>
</svg>
