<svg width="40" height="40" viewBox="0 0 40 40" fill="none" xmlns="http://www.w3.org/2000/svg">
<path d="M20.0003 39.168C9.42032 39.168 0.833657 30.5813 0.833658 20.0013C0.833659 9.4213 9.42033 0.83463 20.0003 0.834631C30.5803 0.834632 39.167 9.4213 39.167 20.0013C39.167 30.5813 30.5803 39.168 20.0003 39.168ZM20.0003 4.66797C11.5287 4.66797 4.66699 11.5296 4.66699 20.0013C4.66699 28.473 11.5287 35.3346 20.0003 35.3346C28.472 35.3346 35.3337 28.473 35.3337 20.0013C35.3337 11.5296 28.472 4.66797 20.0003 4.66797ZM18.0837 20.0013L12.3337 20.0013L20.0003 12.3346L27.667 20.0013L21.917 20.0013L21.917 27.668L18.0837 27.668L18.0837 20.0013Z" fill="#7BD7BD"/>
</svg>
