<svg width="8" height="6" viewBox="0 0 8 6" fill="none" xmlns="http://www.w3.org/2000/svg">
<path d="M4.46879 0.5L7.31129 0.500625L7.37879 0.51L7.44941 0.530625L7.51316 0.560625L7.53691 0.575L7.56754 0.596875L7.61504 0.63875L7.66754 0.701875L7.70441 0.764375L7.73004 0.83L7.74441 0.890625L7.75066 0.96875V3.78375C7.75063 3.90251 7.70551 4.01684 7.62443 4.10362C7.54335 4.1904 7.43235 4.24317 7.31386 4.25127C7.19537 4.25936 7.07823 4.22218 6.9861 4.14723C6.89397 4.07228 6.83373 3.96516 6.81754 3.8475L6.81379 3.78375L6.81254 2.1L4.17504 4.73938C4.0956 4.81909 3.99013 4.86756 3.8779 4.87594C3.76568 4.88432 3.65418 4.85204 3.56379 4.785L3.51129 4.73938L2.59379 3.81875L1.05066 5.3625C0.967022 5.44637 0.85473 5.49547 0.736366 5.49992C0.618001 5.50437 0.502339 5.46384 0.412636 5.38649C0.322933 5.30914 0.26584 5.2007 0.252835 5.08296C0.23983 4.96523 0.271879 4.84694 0.342537 4.75188L0.388162 4.69938L2.26191 2.82437C2.34132 2.74483 2.44666 2.69646 2.55875 2.68808C2.67083 2.67971 2.78219 2.71188 2.87254 2.77875L2.92504 2.82437L3.84379 3.74563L6.15066 1.4375H4.46879C4.35551 1.4375 4.24607 1.39647 4.16071 1.32202C4.07534 1.24757 4.01982 1.14472 4.00441 1.0325L4.00004 0.96875C4.00004 0.84443 4.04942 0.725201 4.13733 0.637294C4.22524 0.549386 4.34447 0.5 4.46879 0.5Z" fill="white"/>
</svg>
