<svg width="24" height="24" viewBox="0 0 24 24" fill="none" xmlns="http://www.w3.org/2000/svg">
<rect width="24" height="24" rx="6" fill="#76E1BB"/>
<path d="M5.491 14.1626L8.407 11.2466L10.831 13.6714L13.537 10.9654L12.0001 9.42859H16.2859V13.7143L14.749 12.1774L10.831 16.0954L8.407 13.6714L6.28558 15.792C7.2485 17.2413 8.7264 18.2704 10.4198 18.6706C12.1132 19.0708 13.8954 18.8123 15.4052 17.9475C16.9151 17.0826 18.0398 15.6761 18.5512 14.0129C19.0627 12.3498 18.9228 10.5544 18.1598 8.99053C17.3968 7.4267 16.0678 6.21141 14.4422 5.59094C12.8165 4.97047 11.0158 4.99122 9.40488 5.64899C7.79396 6.30676 6.49335 7.55235 5.7666 9.13335C5.03986 10.7144 4.94134 12.5125 5.491 14.1634V14.1626ZM4.17272 15.498L4.16415 15.4894L4.16758 15.486C3.67894 14.3889 3.42718 13.201 3.42872 12C3.42872 7.26602 7.26615 3.42859 12.0001 3.42859C16.7341 3.42859 20.5716 7.26602 20.5716 12C20.5716 16.734 16.7341 20.5714 12.0001 20.5714C8.51158 20.5714 5.51158 18.4886 4.17272 15.498Z" fill="white"/>
</svg>
