<svg width="22" height="12" viewBox="0 0 22 12" fill="none" xmlns="http://www.w3.org/2000/svg">
<path d="M15.9998 8.00001H11.6588C11.187 9.33444 10.2587 10.4591 9.03785 11.1753C7.81702 11.8914 6.38233 12.1529 4.98734 11.9136C3.59235 11.6743 2.32688 10.9495 1.4146 9.86733C0.502313 8.78519 0.00195313 7.41539 0.00195313 6.00001C0.00195312 4.58464 0.502313 3.21483 1.4146 2.13269C2.32688 1.05055 3.59235 0.325764 4.98734 0.086421C6.38233 -0.152922 7.81702 0.108595 9.03785 0.824749C10.2587 1.5409 11.187 2.66558 11.6588 4.00001L21.9998 4.00001V8.00001H19.9998L19.9998 12L15.9998 12V8.00001ZM5.99981 8.00001C6.53024 8.00001 7.03895 7.7893 7.41402 7.41423C7.78909 7.03915 7.99981 6.53045 7.99981 6.00001C7.99981 5.46958 7.78909 4.96087 7.41402 4.5858C7.03895 4.21073 6.53024 4.00001 5.99981 4.00001C5.46937 4.00001 4.96067 4.21073 4.58559 4.5858C4.21052 4.96087 3.99981 5.46958 3.99981 6.00001C3.99981 6.53045 4.21052 7.03915 4.58559 7.41423C4.96067 7.7893 5.46937 8.00001 5.99981 8.00001Z" fill="#66B6FF"/>
</svg>
