<svg width="17" height="18" viewBox="0 0 17 18" fill="none" xmlns="http://www.w3.org/2000/svg">
<path d="M9.93285 13.1858L6.43369 11.2775C5.97685 11.7659 5.38367 12.1056 4.73125 12.2524C4.07882 12.3992 3.39731 12.3464 2.77529 12.1009C2.15326 11.8553 1.61949 11.4283 1.24333 10.8754C0.867167 10.3225 0.666016 9.66917 0.666016 9.00042C0.666016 8.33168 0.867167 7.67839 1.24333 7.12547C1.61949 6.57255 2.15326 6.14555 2.77529 5.89997C3.39731 5.6544 4.07882 5.6016 4.73125 5.74843C5.38367 5.89527 5.97685 6.23495 6.43369 6.72334L9.93369 4.81501C9.73498 4.0284 9.82998 3.19633 10.2009 2.47476C10.5718 1.75319 11.1931 1.19166 11.9484 0.895425C12.7037 0.599192 13.5411 0.588594 14.3037 0.865619C15.0662 1.14264 15.7016 1.68827 16.0906 2.40022C16.4796 3.11218 16.5957 3.94158 16.4169 4.73296C16.2382 5.52434 15.777 6.22337 15.1197 6.69901C14.4625 7.17466 13.6543 7.39426 12.8467 7.31667C12.0391 7.23907 11.2875 6.8696 10.7329 6.27751L7.23285 8.18584C7.36719 8.7203 7.36719 9.27971 7.23285 9.81417L10.732 11.7225C11.2867 11.1304 12.0383 10.7609 12.8459 10.6833C13.6534 10.6057 14.4616 10.8254 15.1189 11.301C15.7761 11.7766 16.2374 12.4757 16.4161 13.2671C16.5948 14.0584 16.4788 14.8878 16.0898 15.5998C15.7007 16.3117 15.0654 16.8574 14.3028 17.1344C13.5403 17.4114 12.7029 17.4008 11.9476 17.1046C11.1923 16.8084 10.5709 16.2468 10.2 15.5253C9.82915 14.8037 9.73415 13.9716 9.93285 13.185V13.1858ZM3.99952 10.6667C4.44155 10.6667 4.86547 10.4911 5.17803 10.1785C5.49059 9.86596 5.66619 9.44203 5.66619 9.00001C5.66619 8.55798 5.49059 8.13406 5.17803 7.8215C4.86547 7.50893 4.44155 7.33334 3.99952 7.33334C3.55749 7.33334 3.13357 7.50893 2.82101 7.8215C2.50845 8.13406 2.33285 8.55798 2.33285 9.00001C2.33285 9.44203 2.50845 9.86596 2.82101 10.1785C3.13357 10.4911 3.55749 10.6667 3.99952 10.6667ZM13.1662 5.66667C13.6082 5.66667 14.0321 5.49108 14.3447 5.17852C14.6573 4.86596 14.8329 4.44203 14.8329 4.00001C14.8329 3.55798 14.6573 3.13406 14.3447 2.8215C14.0321 2.50893 13.6082 2.33334 13.1662 2.33334C12.7242 2.33334 12.3002 2.50893 11.9877 2.8215C11.6751 3.13406 11.4995 3.55798 11.4995 4.00001C11.4995 4.44203 11.6751 4.86596 11.9877 5.17852C12.3002 5.49108 12.7242 5.66667 13.1662 5.66667ZM13.1662 15.6667C13.6082 15.6667 14.0321 15.4911 14.3447 15.1785C14.6573 14.866 14.8329 14.442 14.8329 14C14.8329 13.558 14.6573 13.1341 14.3447 12.8215C14.0321 12.5089 13.6082 12.3333 13.1662 12.3333C12.7242 12.3333 12.3002 12.5089 11.9877 12.8215C11.6751 13.1341 11.4995 13.558 11.4995 14C11.4995 14.442 11.6751 14.866 11.9877 15.1785C12.3002 15.4911 12.7242 15.6667 13.1662 15.6667Z" fill="#C7CFE3"/>
</svg>
