<?xml version="1.0" encoding="UTF-8"?><svg id="a" xmlns="http://www.w3.org/2000/svg" width="600" height="600" viewBox="0 0 600 600"><path d="M227.81,61.79l.04,.1c96.7-30.83,208.91,5.39,269.75,86.51h.06c19.57,25.35,34.09,54.53,42.68,85.38l24.81-6.86c-.86-3.09-1.78-6.15-2.74-9.2h.03c-7.83-24.48-18.88-47.96-33.18-69.31h0c-41.02-62.43-108.39-106.6-182.07-119.04C145-7.15-27.47,192.06,39.8,387.92l24.4-8.21C17.59,248.4,98.14,98.7,227.81,61.79Z" fill="#fff"/><path d="M549.27,307.07c-10.5,239.29-309.36,329.94-451.32,138.31l-20.9,15.03c1.87,2.6,3.8,5.16,5.76,7.68l-.02,.02c31.41,40.51,74.25,71.99,122.38,89.65l-.04,.11c174.67,64.92,364.77-62.38,369.86-250.05l-25.73-.74Z" fill="#fff"/><path d="M519.06,219.1c-2.95-8-6.35-15.82-10.16-23.44l-22.83,11.89c41.09,78.3,22.35,184.59-43.92,244.11h-.06c-88.03,83.36-231.85,71.88-305.6-23.95C31.25,293.23,126.43,92.91,300.22,92.35v-25.73c-105.51,0-194.86,70.4-223.67,166.67h-.03c-42.33,139.15,55.89,285.95,201.23,299.13,170.55,16.82,301.42-152.87,241.31-313.31Z" fill="#fff"/><path d="M462.67,336.44c-1.28,5.74-2.88,11.43-4.77,17.05h-.04c-10.85,32.63-32.8,62.23-61.03,82.17h0c-4.79,3.42-9.78,6.58-14.95,9.5l-.03-.03c-79.6,45.99-186.13,14.72-228.5-66.79-9.45-17.74-15.64-37.19-18.15-57.09l-.02-.02c-1.2-9.27-1.6-18.62-1.21-27.93h-.07c1.21-31.26,11.6-62.1,29.39-87.72v-.03c5.3-7.69,11.25-14.92,17.76-21.59l-16.8-19.61c-6.31,6.33-12.18,13.11-17.57,20.26h0c-77.36,101.79-33.19,252.09,87.03,295.73,108.5,41.12,231.63-26.92,254.53-140.55l-25.55-3.34Z" fill="#fff"/><path d="M413.91,145.16l-18.43,18.43c-41.49-30.26-103.45-38.83-152.47-19.87l-10.54-23.54c58.38-23.28,132.76-12.43,181.44,24.98Z" fill="#fff"/><path d="M414.54,293.14c0,13.41-4.98,22.06-4.98,22.06,0,0-7.03-16.87-19.9-16.98-8.11,0-14.34,4.37-27.15,11.68-11.99,6.84-22.92,16.6-31.89,16.6s-22.94-13.9-22.94-13.9c0,0,4.65,20.76,25.84,23.79-10.92,13.96-27.79,13.31-27.79,13.31,0,0-16.87,.65-27.8-13.31,21.2-3.03,25.85-23.79,25.85-23.79,0,0-13.98,13.9-22.95,13.9s-19.89-9.77-31.89-16.6c-12.8-7.31-19.03-11.68-27.14-11.68-12.87,.1-19.9,16.98-19.9,16.98,0,0-4.98-8.65-4.98-22.06s6.49-22.71,12.76-29.42c6.27-6.7,12.77-8.22,16.01-8.22s5.84,.3,11.47,3.56c5.62,3.25,29.85,17.2,29.85,17.2,0,0,9.62,5.19,15.79,5.19s13.09-2.27,17.74-15.25c4.65-12.98,3.68-15.9,5.19-15.79,1.51-.11,.54,2.81,5.19,15.79,4.65,12.98,11.57,15.25,17.74,15.25s15.79-5.19,15.79-5.19c0,0,24.22-13.95,29.85-17.2,5.62-3.26,8.22-3.56,11.46-3.56s9.73,1.52,16.01,8.22c6.27,6.7,12.76,16.01,12.76,29.42Z" fill="#fff"/></svg>