<?xml version="1.0" encoding="UTF-8"?><svg id="a" xmlns="http://www.w3.org/2000/svg" width="850" height="350" viewBox="0 0 850 350"><path d="M249.05,171.01c0,7.72-2.87,12.7-2.87,12.7,0,0-4.05-9.72-11.46-9.78-4.67,0-8.26,2.52-15.63,6.73-6.9,3.94-13.2,9.56-18.36,9.56s-13.21-8.01-13.21-8.01c0,0,2.68,11.96,14.88,13.7-6.29,8.04-16,7.66-16,7.66,0,0-9.72,.37-16.01-7.66,12.21-1.74,14.89-13.7,14.89-13.7,0,0-8.05,8.01-13.21,8.01s-11.45-5.62-18.36-9.56c-7.37-4.21-10.96-6.73-15.63-6.73-7.41,.06-11.46,9.78-11.46,9.78,0,0-2.87-4.98-2.87-12.7s3.74-13.08,7.35-16.94c3.61-3.86,7.35-4.73,9.22-4.73s3.36,.18,6.6,2.05c3.24,1.87,17.19,9.91,17.19,9.91,0,0,5.54,2.99,9.09,2.99s7.54-1.31,10.21-8.78c2.68-7.47,2.12-9.15,2.99-9.09,.87-.06,.31,1.62,2.99,9.09,2.68,7.47,6.66,8.78,10.21,8.78s9.1-2.99,9.1-2.99c0,0,13.95-8.03,17.19-9.91,3.24-1.88,4.73-2.05,6.6-2.05s5.6,.87,9.22,4.73c3.61,3.86,7.35,9.22,7.35,16.94Z" fill="#073763"/><path d="M195.71,332.73c1.22-.1,2.43-.22,3.65-.35,.94-.1,1.89-.19,2.82-.3,1.16-.14,2.31-.3,3.47-.47,.99-.14,1.97-.28,2.96-.44,1.09-.18,2.17-.37,3.25-.57,1.04-.19,2.08-.38,3.11-.59,1.01-.21,2.02-.43,3.03-.66,1.09-.25,2.18-.5,3.26-.76,.94-.23,1.87-.48,2.81-.73,1.14-.3,2.27-.62,3.4-.95,.87-.25,1.73-.51,2.59-.78,1.18-.37,2.35-.75,3.52-1.14,.8-.27,1.6-.54,2.39-.82,1.22-.43,2.42-.88,3.63-1.34,.73-.28,1.47-.56,2.2-.85,1.25-.5,2.48-1.02,3.71-1.55,.68-.29,1.35-.58,2.02-.88,1.27-.57,2.53-1.16,3.78-1.76,.62-.3,1.24-.59,1.85-.89,1.29-.64,2.56-1.3,3.83-1.98,.56-.3,1.13-.59,1.69-.89,1.31-.72,2.61-1.46,3.9-2.21,.5-.29,1.01-.57,1.5-.87,1.35-.81,2.68-1.65,4.01-2.49,.42-.27,.85-.52,1.26-.79,1.45-.95,2.88-1.93,4.3-2.92,.27-.19,.56-.37,.83-.57,1.69-1.2,3.37-2.43,5.01-3.7h0s0,0,0,0l-.03-.03-9.62-11.22c-1.9,1.45-3.84,2.84-5.81,4.2-.02,.02-.05,.03-.08,.05-1.76,1.2-3.56,2.36-5.37,3.49-.54,.33-1.08,.65-1.62,.98-1.33,.8-2.69,1.59-4.05,2.35-.66,.37-1.32,.74-1.99,1.1-1.35,.73-2.72,1.42-4.1,2.11-.55,.27-1.09,.56-1.64,.82-.35,.17-.71,.33-1.07,.5-1.16,.55-2.33,1.08-3.5,1.59-.46,.2-.93,.41-1.39,.61-1.41,.6-2.84,1.18-4.27,1.74-.44,.17-.89,.33-1.33,.5-1.19,.45-2.38,.88-3.58,1.29-.43,.15-.85,.3-1.28,.44-1.47,.49-2.95,.96-4.44,1.41-.5,.15-1,.29-1.5,.43-1.29,.37-2.59,.73-3.9,1.06-.33,.09-.66,.18-.99,.26-1.54,.38-3.08,.73-4.64,1.06-.52,.11-1.03,.22-1.55,.32-1.57,.32-3.15,.62-4.74,.89-.3,.05-.6,.09-.91,.14-1.41,.23-2.82,.43-4.24,.61-.48,.06-.97,.13-1.45,.19-1.64,.2-3.28,.37-4.94,.51-.35,.03-.7,.05-1.06,.08-1.49,.12-2.99,.21-4.5,.28-.35,.02-.7,.04-1.04,.05-1.81,.07-3.63,.11-5.46,.11-4.63,0-9.23-.22-13.79-.66-.15-.01-.3-.03-.45-.05-1.35-.13-2.69-.28-4.03-.46-.27-.03-.54-.07-.81-.11-1.21-.16-2.41-.34-3.61-.53-.36-.06-.73-.12-1.09-.18-1.1-.18-2.19-.38-3.28-.59-.44-.08-.88-.17-1.32-.26-1-.2-1.99-.41-2.98-.63-.43-.1-.86-.19-1.29-.3-2.06-.48-4.1-1-6.13-1.57-.21-.06-.42-.12-.63-.18-2.02-.58-4.02-1.19-6.01-1.86-.12-.04-.25-.08-.37-.12-2-.67-3.98-1.4-5.94-2.16-.35-.13-.69-.27-1.04-.4-1.92-.76-3.82-1.55-5.7-2.39-.27-.12-.55-.25-.82-.38-1.75-.79-3.48-1.62-5.19-2.48-.27-.13-.53-.26-.8-.39-1.78-.91-3.53-1.86-5.27-2.84-.43-.24-.86-.49-1.29-.73-1.71-.98-3.4-2-5.06-3.05-.34-.21-.67-.43-1-.65-1.52-.98-3.02-1.99-4.51-3.03-.32-.22-.64-.43-.95-.66-1.23-.87-2.44-1.76-3.64-2.67-.61-.46-1.2-.94-1.8-1.41-.63-.5-1.27-.99-1.9-1.5-.67-.55-1.34-1.1-2-1.66-.54-.46-1.08-.91-1.61-1.38-.67-.59-1.35-1.17-2.01-1.77-.51-.46-1.01-.93-1.52-1.4-.66-.61-1.32-1.22-1.97-1.85-.52-.51-1.04-1.03-1.55-1.54-1.09-1.08-2.16-2.18-3.21-3.29-.53-.56-1.06-1.12-1.58-1.69-.56-.62-1.11-1.24-1.67-1.87-.53-.6-1.05-1.19-1.56-1.8-.53-.62-1.05-1.24-1.57-1.87-.54-.66-1.07-1.32-1.6-1.99-1.4-1.77-2.78-3.56-4.11-5.41l-12.03,8.65c1.08,1.5,2.19,2.97,3.32,4.42h-.01c.24,.32,.51,.62,.75,.94,.99,1.25,1.99,2.49,3.01,3.71,.42,.5,.83,1,1.25,1.49,1.28,1.49,2.58,2.96,3.91,4.39,.39,.42,.79,.84,1.19,1.26,1.07,1.13,2.16,2.25,3.26,3.35,.45,.45,.9,.9,1.35,1.35,1.4,1.36,2.82,2.7,4.27,4,.43,.39,.86,.76,1.29,1.14,1.18,1.04,2.37,2.07,3.58,3.08,.46,.38,.91,.76,1.37,1.14,1.53,1.24,3.07,2.46,4.64,3.64,.43,.32,.87,.64,1.3,.96,1.31,.97,2.63,1.91,3.97,2.84,.44,.3,.88,.61,1.32,.91,1.65,1.12,3.32,2.2,5.01,3.25,.15,.09,.29,.19,.43,.28,.51,.31,1.03,.61,1.54,.92,.67,.41,1.34,.81,2.02,1.21,.62,.36,1.25,.71,1.87,1.07,.78,.44,1.56,.88,2.35,1.31,.55,.3,1.1,.58,1.64,.87,.89,.47,1.78,.93,2.68,1.39,.44,.22,.89,.44,1.34,.66,1.05,.52,2.11,1.03,3.18,1.52,.12,.05,.23,.11,.34,.16,.17,.08,.35,.15,.52,.23,1.11,.51,2.23,1.01,3.35,1.49,.28,.12,.57,.24,.85,.36,1.13,.48,2.27,.95,3.42,1.4,.27,.11,.55,.21,.82,.32,1.16,.45,2.32,.89,3.5,1.32,.26,.09,.52,.19,.79,.28,1.19,.43,2.39,.84,3.59,1.24,.24,.08,.49,.16,.73,.24,1.22,.4,2.45,.78,3.68,1.15,.23,.07,.46,.13,.69,.2,1.25,.37,2.5,.72,3.76,1.06,.22,.06,.44,.11,.65,.17,1.27,.33,2.55,.66,3.83,.96,.21,.05,.41,.09,.62,.14,1.3,.3,2.59,.59,3.9,.85,.2,.04,.39,.08,.59,.12,1.31,.26,2.63,.52,3.95,.75,.2,.03,.4,.07,.6,.1,1.32,.23,2.64,.44,3.97,.63,.21,.03,.42,.06,.62,.09,1.32,.19,2.64,.36,3.96,.51,.23,.03,.46,.05,.69,.07,1.31,.14,2.61,.28,3.92,.39,.26,.02,.51,.04,.77,.06,1.28,.1,2.57,.2,3.86,.27,.3,.02,.6,.03,.91,.04,1.24,.06,2.49,.12,3.73,.15,.37,0,.74,0,1.11,.02,.97,.02,1.95,.04,2.92,.04,.17,0,.33-.01,.5-.01,1.67,0,3.35-.03,5.03-.09,.15,0,.31-.02,.46-.03,1.25-.05,2.5-.13,3.75-.2,.92-.06,1.85-.1,2.76-.17Z" fill="#173862"/><path d="M315.1,87.66h-18.23c-26.21-34.08-67.41-56.07-113.66-56.07-79.07,0-143.4,64.34-143.4,143.41,0,15.71,2.52,31.13,7.48,45.86l-14.05,4.73c-5.48-16.26-8.25-33.27-8.25-50.59C25,87.75,95.98,16.77,183.22,16.77c54.99,0,103.52,28.2,131.89,70.89Z" fill="#173862"/><path d="M264.91,262.3c-3.35,3.14-6.89,6.09-10.58,8.85-19.89,14.74-44.51,23.47-71.11,23.47-31.77,0-60.71-12.46-82.15-32.78-23.06-21.8-37.46-52.67-37.46-86.84,0-65.96,53.66-119.62,119.62-119.62v-14.82c-74.12,0-134.43,60.31-134.43,134.43,0,43.02,20.3,81.37,51.82,106,22.81,17.81,51.49,28.44,82.61,28.44s58.25-10.06,80.76-27.03c7.85-5.9,15.03-12.65,21.41-20.11h-20.48Z" fill="#83ccf0"/><path d="M191.86,285.35c.55-.04,1.1-.09,1.66-.15,1.62-.15,3.23-.33,4.83-.55,.09-.01,.18-.02,.27-.03,.03,0,.06,0,.09-.01,.42-.06,.84-.13,1.26-.2,.79-.12,1.59-.24,2.37-.38,.5-.09,.99-.19,1.48-.28,.73-.14,1.46-.28,2.19-.43,.43-.09,.86-.19,1.29-.29,.81-.18,1.61-.36,2.41-.56,.33-.08,.66-.17,.98-.25,.93-.24,1.86-.49,2.78-.75,.19-.06,.39-.11,.58-.17,1.1-.32,2.19-.65,3.27-1l.07-.02c11.34-3.68,21.8-9.1,31.11-15.95l-9.66-11.26c-2.76,1.97-5.63,3.79-8.61,5.47l-.02-.02c-7.76,4.39-16.19,7.72-25.09,9.81-.65,.15-1.3,.29-1.95,.43-.29,.06-.57,.13-.86,.18-.85,.17-1.7,.33-2.56,.48-.1,.02-.21,.04-.31,.06-.9,.15-1.81,.29-2.72,.42-.08,.01-.15,.02-.23,.03-.9,.13-1.79,.23-2.69,.33-.2,.02-.39,.05-.59,.07-.69,.07-1.38,.13-2.07,.19-.42,.04-.84,.07-1.26,.1-.44,.03-.87,.05-1.31,.08-.68,.04-1.35,.08-2.04,.1-.2,0-.39,0-.59,.01-.9,.03-1.81,.04-2.72,.04-.04,0-.07,0-.11,0-2.11,0-4.2-.07-6.27-.21-.03,0-.05,0-.08,0-1-.07-1.99-.15-2.99-.25-.12-.01-.25-.03-.37-.04-.88-.09-1.75-.19-2.62-.3-.26-.03-.52-.07-.78-.11-.72-.1-1.44-.2-2.15-.32-.41-.07-.83-.14-1.24-.21-.55-.1-1.1-.19-1.64-.3-.57-.11-1.14-.23-1.71-.35-.37-.08-.75-.16-1.12-.24-.72-.16-1.44-.34-2.16-.52-.21-.05-.43-.11-.64-.16-.86-.22-1.71-.45-2.56-.7-.07-.02-.14-.04-.2-.06-9.62-2.79-18.68-7.07-26.89-12.6l-.13-.09c-.72-.49-1.44-.99-2.15-1.5-.16-.11-.31-.23-.47-.34-.59-.43-1.17-.86-1.75-1.3-.28-.21-.55-.42-.83-.64-.45-.35-.89-.7-1.33-1.06-.4-.32-.8-.65-1.19-.98-.31-.26-.61-.51-.92-.77-.52-.45-1.04-.9-1.55-1.35-.17-.15-.34-.3-.51-.46-.64-.58-1.26-1.16-1.88-1.75-.04-.04-.08-.08-.12-.12-5.72-5.49-10.76-11.68-14.98-18.44-1.15-1.84-2.24-3.72-3.27-5.64,0,0,0,0,0,0-.92-1.73-1.79-3.49-2.61-5.28-.13-.27-.26-.55-.38-.82-.36-.8-.71-1.62-1.04-2.43-.24-.58-.47-1.17-.7-1.75-.38-.98-.75-1.97-1.1-2.96-.31-.88-.61-1.77-.9-2.67-.16-.51-.32-1.02-.48-1.54-.41-1.36-.8-2.72-1.15-4.11-.03-.1-.05-.2-.07-.3-.36-1.43-.68-2.88-.97-4.35-.05-.25-.1-.49-.15-.74-.3-1.58-.57-3.17-.8-4.78-.16-1.17-.3-2.33-.42-3.49-.04-.41-.07-.83-.11-1.24-.07-.73-.13-1.46-.18-2.19-.04-.65-.07-1.3-.1-1.95-.02-.49-.05-.97-.06-1.46-.02-.79-.04-1.59-.04-2.39,0-.34,0-.68,0-1.02,0-.96,.02-1.92,.06-2.88,0-.28,.02-.56,.03-.84,.04-.94,.1-1.87,.16-2.81,.02-.32,.04-.64,.07-.97,.07-.84,.15-1.68,.24-2.51,.05-.43,.09-.86,.14-1.28,.08-.69,.18-1.38,.28-2.06,.08-.58,.17-1.16,.26-1.73,.08-.5,.17-1,.26-1.5,.14-.76,.27-1.51,.43-2.26,.06-.29,.13-.58,.19-.88,.2-.95,.42-1.89,.65-2.83,.02-.08,.04-.15,.06-.23,1.72-6.88,4.2-13.5,7.35-19.75,2-4,4.27-7.84,6.82-11.5h0c3.05-4.45,6.48-8.61,10.22-12.45l-9.68-11.29c-3.64,3.64-7.01,7.55-10.12,11.67h0s-.04,.06-.07,.09c-7.32,9.73-13.06,20.7-16.87,32.53-.04,.13-.09,.27-.14,.4-.41,1.29-.78,2.6-1.15,3.91-.13,.48-.28,.94-.4,1.42-.26,.99-.49,2-.72,3-.19,.82-.39,1.63-.57,2.46-.15,.71-.27,1.43-.41,2.14-.22,1.13-.43,2.27-.61,3.41-.07,.47-.13,.95-.2,1.42-.2,1.4-.39,2.79-.54,4.2-.03,.3-.05,.6-.08,.9-.15,1.57-.28,3.15-.36,4.74-.01,.24-.02,.47-.03,.71-.08,1.63-.12,3.26-.12,4.9,0,.08,0,.16,0,.24,0,.28,.02,.56,.02,.84,.01,1.4,.03,2.8,.1,4.21,.03,.56,.07,1.11,.11,1.67,.07,1.2,.14,2.4,.26,3.6,.09,.94,.21,1.87,.32,2.81,.09,.76,.15,1.52,.26,2.28,.01,.09,.03,.18,.04,.27,.04,.29,.09,.57,.14,.86,.2,1.3,.41,2.58,.65,3.86,.1,.53,.21,1.06,.32,1.59,.22,1.07,.45,2.14,.69,3.2,.12,.51,.24,1.01,.36,1.52,.29,1.19,.61,2.37,.94,3.54,.09,.33,.18,.66,.28,.99,4.82,16.42,13.27,31.08,24.32,43.21,1.25,1.38,2.55,2.71,3.87,4.02,.02,.02,.04,.04,.06,.06,2.31,2.29,4.7,4.48,7.21,6.56,.16,.14,.34,.26,.5,.4,.89,.73,1.8,1.44,2.72,2.15,.54,.42,1.08,.84,1.63,1.25,1.06,.79,2.14,1.54,3.23,2.3,.43,.3,.86,.6,1.29,.89,1.21,.81,2.44,1.58,3.67,2.34,.34,.21,.68,.43,1.03,.64,1.31,.79,2.65,1.54,3.99,2.27,.3,.16,.59,.33,.9,.49,1.37,.73,2.76,1.42,4.16,2.09,.31,.15,.61,.3,.92,.44,1.37,.64,2.75,1.24,4.14,1.82,.37,.16,.75,.32,1.12,.47,1.31,.53,2.63,1.02,3.96,1.5,.5,.18,.99,.37,1.49,.54,1.19,.41,2.4,.79,3.62,1.16,.67,.21,1.34,.42,2.01,.61,1.05,.3,2.1,.57,3.16,.84,.87,.22,1.75,.44,2.63,.65,.88,.2,1.76,.38,2.64,.55,1.09,.22,2.17,.43,3.27,.62,.71,.12,1.42,.23,2.13,.33,1.28,.19,2.56,.37,3.86,.52,.57,.07,1.15,.12,1.72,.18,1.42,.14,2.85,.26,4.29,.35,.51,.03,1.02,.05,1.52,.07,1.47,.07,2.95,.11,4.44,.12,.23,0,.46,.02,.68,.02,.58,0,1.15-.02,1.72-.03,.76-.01,1.53-.01,2.29-.04,1.55-.06,3.09-.15,4.63-.27Z" fill="#f58833"/><path d="M248.69,85.8l-10.61,10.61c-15.56-10.87-34.47-17.28-54.86-17.28-11.57,0-22.66,2.06-32.94,5.84l-6.07-13.55c12.14-4.59,25.29-7.1,39.01-7.1,24.46,0,47.12,7.99,65.47,21.48Z" fill="#f58833"/><g><path d="M285.39,243.71V106.29h40.05V243.71h-40.05Z" fill="#282828"/><path d="M494.06,243.71l-36.31-43.38h-40.44v43.38h-39.85V106.29h96.39c35.14,0,62.42,15.51,62.42,46.92,0,22.97-14.53,37.5-36.12,43.78l40.44,46.72h-46.52Zm-23.16-72.44c14.33,0,24.73-3.93,24.73-17.28s-10.4-17.27-24.73-17.27h-53.79v34.55h53.79Z" fill="#282828"/><path d="M581.59,243.71V106.29h40.05V243.71h-40.05Z" fill="#282828"/><path d="M825,200.72c0,28.27-26.11,47.51-75.97,47.51-35.33,0-64.98-9.62-86.57-26.9l21.01-24.73c16.29,13.74,38.87,21.4,66.35,21.4,23.56,0,35.33-4.32,35.33-13.35s-10.99-11.78-39.26-14.13c-40.83-3.53-77.93-12.56-77.93-43.19s31.8-45.54,75.38-45.54c29.45,0,56.54,7.07,75.38,20.42l-20.22,24.93c-15.31-10.8-33.76-15.12-55.16-15.31-16.1,0-35.53,2.55-35.53,12.37,0,9.23,15.9,10.4,40.44,12.37,44.95,3.73,76.76,12.56,76.76,44.17Z" fill="#282828"/></g></svg>