<svg width="119" height="58" viewBox="0 0 119 58" fill="none" xmlns="http://www.w3.org/2000/svg">
<path opacity="0.5" fill-rule="evenodd" clip-rule="evenodd" d="M119 8.07954C119 8.07954 108.984 12.836 99.1342 12.836C89.2843 12.836 89.2843 0 79.4344 0C69.5845 0 69.5845 5.98484 59.7346 5.98484C50.2495 5.98484 50.2495 18.5207 40.3996 18.5207C30.5497 18.5207 28.925 13.4982 19.0751 13.4982C9.22525 13.4982 1.00002 26.4829 1.00002 26.4829L1.00002 52C1.00002 55.3137 3.68369 58 6.99739 58C10.7081 58 15.7039 58 20.6998 58C30.5497 58 30.5497 58 40.3996 58C50.2495 58 50.2495 58 60.0994 58C69.5845 58 69.5845 58 79.4344 58C89.2843 58 89.2843 58 99.1342 58C104.167 58 109.242 58 113.003 58C116.317 58 119 55.3137 119 52L119 8.07954Z" fill="url(#paint01_linear)"/>
<path d="M118 9.5C118 9.5 108.984 13.836 99.1342 13.836C89.2843 13.836 89.2843 1 79.4344 1C69.5845 1 69.5845 6.98484 59.7346 6.98484C50.2495 6.98484 50.2495 19.5207 40.3996 19.5207C30.5497 19.5207 28.9251 14.4982 19.0752 14.4982C9.22526 14.4982 1.00002 27.4829 1.00002 27.4829" stroke="url(#paint02_linear)" stroke-width="1.5" stroke-linecap="round"/>
<defs>
<linearGradient id="paint01_linear" x1="60" y1="-5" x2="59.5127" y2="58.0002" gradientUnits="userSpaceOnUse">
<stop stop-color="#FFCFB5"/>
<stop offset="1" stop-color="#F19E9E" stop-opacity="0.26"/>
</linearGradient>
<linearGradient id="paint02_linear" x1="119" y1="19" x2="1" y2="19" gradientUnits="userSpaceOnUse">
<stop stop-color="#FFB891"/>
<stop offset="1" stop-color="#FF8888"/>
</linearGradient>
</defs>
</svg>
