<svg width="14" height="18" viewBox="0 0 14 18" fill="none" xmlns="http://www.w3.org/2000/svg">
<path d="M12.7985 4.36739C11.5831 3.15191 9.83863 2.78132 8.29962 3.25363C8.82923 2.48911 9.71214 1.98703 10.7106 1.98703C11.1409 1.98703 11.4898 1.63815 11.4898 1.20781C11.4898 0.777472 11.1409 0.428589 10.7106 0.428589C9.17042 0.428589 7.80902 1.20823 6.99998 2.39342C6.19094 1.20823 4.82954 0.428589 3.28938 0.428589C2.85904 0.428589 2.51016 0.777472 2.51016 1.20781C2.51016 1.63815 2.85904 1.98703 3.28938 1.98703C4.28782 1.98703 5.17073 2.48911 5.70024 3.25368C4.16128 2.78132 2.41681 3.15197 1.20138 4.36745C0.897067 4.67176 0.897067 5.16511 1.20138 5.46942C1.35353 5.62158 1.55296 5.69768 1.75239 5.69768C1.95182 5.69768 2.15125 5.62163 2.30335 5.46942C3.00907 4.76371 3.98798 4.49436 4.90273 4.66017C3.48091 5.41451 2.51011 6.91041 2.51011 8.629C2.51011 9.05934 2.85899 9.40823 3.28933 9.40823C3.71967 9.40823 4.06855 9.05934 4.06855 8.629C4.06855 7.28246 4.98148 6.14584 6.22071 5.80365V16.7922C6.22071 17.2226 6.56959 17.5714 6.99993 17.5714C7.43026 17.5714 7.77915 17.2226 7.77915 16.7922V5.8036C9.01837 6.14578 9.9313 7.28241 9.9313 8.62895C9.9313 9.05929 10.2802 9.40817 10.7105 9.40817C11.1409 9.40817 11.4897 9.05929 11.4897 8.62895C11.4897 6.91035 10.519 5.41451 9.09712 4.66012C10.0119 4.49436 10.9908 4.76371 11.6965 5.46937C11.8487 5.62152 12.0481 5.69763 12.2475 5.69763C12.4469 5.69763 12.6463 5.62158 12.7985 5.46937C13.1028 5.16506 13.1028 4.67171 12.7985 4.36739Z" fill="white"/>
</svg>
